<svg width="149" height="48" viewBox="0 0 149 48" fill="none" xmlns="http://www.w3.org/2000/svg">
<path d="M15.7018 34.5244C13.7364 34.5244 11.8437 34.2969 10.022 33.84C8.29783 33.4242 6.64861 32.7422 5.13341 31.8187C3.69485 30.9262 2.55606 29.8098 1.71882 28.4729C0.87981 27.136 0.461191 25.5751 0.461191 23.792V23.2302H10.022V23.6676C10.022 24.8693 10.5542 25.7511 11.6202 26.3111C12.6863 26.8711 14.1302 27.1502 15.9501 27.1502C16.8746 27.1536 17.7967 27.0546 18.6995 26.8551C19.5775 26.6596 20.3012 26.3378 20.8706 25.8916C21.44 25.4453 21.7256 24.88 21.7256 24.1956C21.7256 23.0969 21.119 22.3182 19.9092 21.8613C18.6977 21.4062 16.7572 20.9493 14.0876 20.4924C12.5361 20.2342 11.0018 19.8809 9.49343 19.4347C7.99859 19.0033 6.56094 18.3933 5.21145 17.6178C3.95761 16.9065 2.88442 15.9148 2.07536 14.72C1.28956 13.5502 0.895774 12.1244 0.895774 10.4444C0.895774 8.20445 1.57337 6.31645 2.92856 4.78223C4.28375 3.24801 6.08949 2.08534 8.34577 1.29778C10.6021 0.510228 13.0854 0.115561 15.7958 0.115561C18.382 0.115561 20.7944 0.545783 23.0294 1.40623C25.2644 2.26667 27.0737 3.50223 28.4608 5.10934C29.8479 6.71645 30.5397 8.65067 30.5397 10.912V11.3476H21.0729V10.9742C21.0729 10.144 20.8086 9.47023 20.2817 8.95112C19.7151 8.40985 19.0289 8.01027 18.2791 7.78489C17.4661 7.52452 16.6174 7.39315 15.7638 7.39556C14.978 7.39556 14.1674 7.48445 13.3284 7.66045C12.4894 7.83645 11.7816 8.12623 11.2016 8.53156C10.6216 8.93512 10.3324 9.50045 10.3324 10.2276C10.3324 10.9316 10.6429 11.5076 11.2637 11.952C11.8845 12.4 12.7537 12.7627 13.8712 13.0418C14.9887 13.3227 16.2836 13.5858 17.7523 13.8364C19.1376 14.064 20.6028 14.3804 22.1442 14.784C23.6857 15.1893 25.1349 15.76 26.4901 16.496C27.7971 17.1895 28.924 18.1801 29.7805 19.3884C30.6177 20.5813 31.0381 22.0907 31.0381 23.9147C31.0381 25.8027 30.6035 27.4204 29.7344 28.768C28.8454 30.1352 27.6351 31.2627 26.2098 32.0516C24.6665 32.9158 23.0033 33.5449 21.2751 33.9182C19.464 34.3218 17.6068 34.5244 15.7018 34.5244V34.5244ZM59.3871 33.7778V15.8578C59.3871 14.4889 59.2098 13.2391 58.8585 12.1084C58.5364 11.0207 57.8726 10.0661 56.9659 9.38667C56.0559 8.70223 54.7415 8.36089 53.0227 8.36089C51.5327 8.36089 50.2449 8.70223 49.1594 9.38667C48.0662 10.0773 47.1972 11.0718 46.6583 12.2489C46.08 13.472 45.7891 14.8836 45.7891 16.48L43.1213 14.5511C43.1213 11.6889 43.7421 9.17867 44.9838 7.02223C46.1815 4.90899 47.9238 3.15722 50.0285 1.95023C52.1465 0.728894 54.5021 0.117339 57.0865 0.117339C59.8004 0.117339 62.0283 0.661339 63.7773 1.75112C65.5263 2.83912 66.83 4.35378 67.6886 6.29334C68.5471 8.23112 68.9764 10.4978 68.9764 13.0916V33.7778H59.3871ZM36.168 33.7778V0.737783H45.7909V33.7778H36.168ZM86.5247 34.4622C84.1229 34.4622 81.9873 34.0782 80.1141 33.3102C78.241 32.544 76.7776 31.4347 75.7222 29.9822C74.6667 28.5298 74.1381 26.768 74.1381 24.6933C74.1381 22.3502 74.7803 20.4409 76.0627 18.9689C77.347 17.4969 79.048 16.3716 81.1695 15.5929C83.3983 14.7911 85.719 14.2738 88.0767 14.0533C91.6971 13.7013 94.1964 13.3778 95.5729 13.0898C96.9493 12.7982 97.6376 12.2898 97.6376 11.5644V11.5022C97.6376 10.2791 97.0522 9.31556 95.8833 8.60978C94.7126 7.90401 93.0842 7.55201 90.9947 7.55201C88.7792 7.55201 87.0887 7.95023 85.9198 8.74845C84.7491 9.54845 84.1637 10.7662 84.1637 12.4036H74.6951C74.6951 9.74934 75.4153 7.50934 76.8538 5.68356C78.2906 3.85956 80.2418 2.47467 82.7039 1.53067C85.1677 0.58845 87.9508 0.115561 91.055 0.115561C93.9516 0.115561 96.6318 0.55645 99.0939 1.43823C101.558 2.32001 103.539 3.64267 105.04 5.40445C106.539 7.168 107.289 9.40801 107.289 12.1244V26.4036C107.289 27.2551 107.315 28.0693 107.367 28.8462C107.42 29.6249 107.537 30.3342 107.723 30.9778C107.931 31.7031 108.19 32.3058 108.5 32.7822C108.811 33.2587 109.068 33.5911 109.276 33.7778H99.8087C99.5613 33.4962 99.3381 33.1941 99.1418 32.8747C98.8223 32.3801 98.5661 31.8474 98.379 31.2889C98.1345 30.5751 97.9534 29.8409 97.838 29.0951C97.7153 28.2349 97.6578 27.3667 97.666 26.4978L99.6526 27.8667C99.0744 29.2356 98.1378 30.4124 96.8447 31.3973C95.5498 32.3822 94.019 33.1396 92.2505 33.6693C90.4802 34.1973 88.5716 34.4622 86.5211 34.4622H86.5247ZM89.1002 27.2444C90.5535 27.2556 91.9944 26.9751 93.3379 26.4196C94.6356 25.8822 95.7506 24.9802 96.5485 23.8222C97.3768 22.64 97.7901 21.0951 97.7901 19.1858V15.8578L100.181 18.192C98.8154 18.6898 97.2367 19.0987 95.4469 19.4187C93.6554 19.7422 91.8727 19.9947 90.0918 20.1831C87.981 20.3893 86.4023 20.7467 85.3593 21.2551C84.3127 21.7636 83.7912 22.6187 83.7912 23.8222C83.7912 24.9636 84.2347 25.8187 85.1251 26.3893C86.0156 26.9582 87.3406 27.2444 89.0985 27.2444H89.1002ZM113.476 47.3742V0.737783H123.129V47.3742H113.476V47.3742ZM133.311 34.5244C130.767 34.543 128.274 33.813 126.141 32.4249C123.968 31.024 122.23 29.136 120.926 26.7627C119.622 24.3876 118.969 21.7173 118.969 18.7502V18.2524L123.129 18.16V18.5333C123.129 20.0676 123.501 21.4116 124.246 22.5618C124.991 23.7138 125.955 24.5991 127.134 25.2213C128.314 25.8436 129.545 26.1564 130.827 26.1564C132.938 26.1564 134.776 25.424 136.337 23.9627C137.899 22.4996 138.682 20.2133 138.682 17.1022C138.682 13.9911 137.905 11.7244 136.353 10.304C134.801 8.88356 132.959 8.17245 130.827 8.17245C129.545 8.17245 128.314 8.48001 127.134 9.09156C125.965 9.69391 124.97 10.5885 124.246 11.6889C123.501 12.8089 123.129 14.1476 123.129 15.7013L118.969 15.4524C118.969 12.4658 119.622 9.82756 120.926 7.53601C122.23 5.24267 123.968 3.43467 126.141 2.10667C128.298 0.783753 130.782 0.0939072 133.311 0.115561C135.98 0.115561 138.474 0.773339 140.793 2.09067C143.109 3.40801 144.988 5.33156 146.426 7.86312C147.863 10.3929 148.583 13.472 148.583 17.1022C148.583 20.8978 147.881 24.0924 146.472 26.6844C145.066 29.2764 143.203 31.232 140.885 32.5493C138.577 33.8636 135.965 34.5449 133.311 34.5244Z" fill="#151515"/>
</svg>
